<svg width="32" height="32" viewBox="0 0 32 32" fill="none" xmlns="http://www.w3.org/2000/svg">
<path d="M6.6665 18.7453C6.6665 17.3987 6.6665 16.7267 6.9625 16.152C7.25717 15.5787 7.80517 15.1867 8.89984 14.4053L14.4505 10.44C15.1972 9.90667 15.5732 9.63867 15.9998 9.63867C16.4265 9.63867 16.8012 9.90534 17.5492 10.44L23.0998 14.404C24.1945 15.1867 24.7425 15.5773 25.0372 16.152C25.3332 16.7253 25.3332 17.3987 25.3332 18.744V25.3333C25.3332 26.5907 25.3332 27.2187 24.9425 27.6093C24.5518 28 23.9238 28 22.6665 28H9.33317C8.07584 28 7.44784 28 7.05717 27.6093C6.6665 27.2187 6.6665 26.5907 6.6665 25.3333V18.7453Z" fill="#DEE4EB" fill-opacity="0.5"/>
<path d="M4 16.516C4 16.8707 4 17.0493 4.112 17.104C4.224 17.1587 4.36533 17.0507 4.64533 16.8307L14.3627 9.27333C15.1493 8.66133 15.5427 8.356 16 8.356C16.4573 8.356 16.8507 8.66266 17.6373 9.27333L27.3547 16.8307C27.6347 17.0493 27.776 17.1587 27.888 17.104C28 17.0493 28 16.8707 28 16.516V15.9707C28 15.3307 28 15.0107 27.864 14.7333C27.7293 14.456 27.476 14.2587 26.9707 13.8667L17.6373 6.60666C16.8507 5.99466 16.4573 5.68933 16 5.68933C15.5427 5.68933 15.1493 5.996 14.3627 6.60666L5.02933 13.8667C4.524 14.2587 4.27067 14.456 4.136 14.7333C4 15.0107 4 15.3307 4 15.9707V16.516ZM16.6667 20H15.3333C14.6261 20 13.9478 20.2809 13.4477 20.781C12.9476 21.2811 12.6667 21.9594 12.6667 22.6667V27.8C12.6667 27.9107 12.756 28 12.8667 28H19.1333C19.1864 28 19.2372 27.9789 19.2748 27.9414C19.3123 27.9039 19.3333 27.853 19.3333 27.8V22.6667C19.3333 21.9594 19.0524 21.2811 18.5523 20.781C18.0522 20.2809 17.3739 20 16.6667 20Z" fill="#DEE4EB"/>
<path d="M23.3335 6.66663H22.0002C21.632 6.66663 21.3335 6.9651 21.3335 7.33329V11.3333C21.3335 11.7015 21.632 12 22.0002 12H23.3335C23.7017 12 24.0002 11.7015 24.0002 11.3333V7.33329C24.0002 6.9651 23.7017 6.66663 23.3335 6.66663Z" fill="#DEE4EB"/>
</svg>
