<svg width="32" height="32" viewBox="0 0 32 32" fill="none" xmlns="http://www.w3.org/2000/svg">
<path opacity="0.4" d="M28.8801 13.9201L27.5734 19.4934C26.4534 24.3067 24.2401 26.2534 20.0801 25.8534C19.4134 25.8001 18.6934 25.6801 17.9201 25.4934L15.6801 24.9601C10.1201 23.6401 8.40008 20.8934 9.70674 15.3201L11.0134 9.73339C11.2801 8.60005 11.6001 7.61338 12.0001 6.80005C13.5601 3.57338 16.2134 2.70672 20.6667 3.76005L22.8934 4.28005C28.4801 5.58672 30.1867 8.34672 28.8801 13.9201Z" fill="#E5E9ED"/>
<path d="M20.0805 25.8535C19.2538 26.4135 18.2138 26.8802 16.9471 27.2935L14.8405 27.9868C9.54712 29.6935 6.76046 28.2668 5.04045 22.9735L3.33379 17.7068C1.62712 12.4135 3.04045 9.6135 8.33379 7.90684L10.4405 7.2135C10.9871 7.04017 11.5071 6.8935 12.0005 6.80017C11.6005 7.6135 11.2805 8.60017 11.0138 9.7335L9.70712 15.3202C8.40045 20.8935 10.1205 23.6402 15.6805 24.9602L17.9205 25.4935C18.6938 25.6802 19.4138 25.8002 20.0805 25.8535Z" fill="#E5E9ED"/>
</svg>
