<svg width="32" height="32" viewBox="0 0 32 32" fill="none" xmlns="http://www.w3.org/2000/svg">
<path opacity="0.4" d="M15.9998 2.66663C12.5065 2.66663 9.6665 5.50663 9.6665 8.99996C9.6665 12.4266 12.3465 15.2 15.8398 15.32C15.9465 15.3066 16.0532 15.3066 16.1332 15.32C16.1598 15.32 16.1732 15.32 16.1998 15.32C16.2132 15.32 16.2132 15.32 16.2265 15.32C19.6398 15.2 22.3198 12.4266 22.3332 8.99996C22.3332 5.50663 19.4932 2.66663 15.9998 2.66663Z" fill="#DEE4EB"/>
<path d="M22.7733 18.8665C19.0533 16.3865 12.9866 16.3865 9.23995 18.8665C7.54661 19.9998 6.61328 21.5331 6.61328 23.1731C6.61328 24.8131 7.54661 26.3331 9.22661 27.4531C11.0933 28.7065 13.5466 29.3331 15.9999 29.3331C18.4533 29.3331 20.9066 28.7065 22.7733 27.4531C24.4533 26.3198 25.3866 24.7998 25.3866 23.1465C25.3733 21.5065 24.4533 19.9865 22.7733 18.8665Z" fill="#DEE4EB"/>
</svg>
