<svg width="32" height="32" viewBox="0 0 32 32" fill="none" xmlns="http://www.w3.org/2000/svg">
<path opacity="0.4" d="M24.507 17.1198V23.6931C24.507 25.3864 23.187 27.1997 21.6003 27.7331L17.347 29.1464C16.6003 29.3998 15.387 29.3998 14.6537 29.1464L10.4003 27.7331C8.80032 27.1997 7.49365 25.3864 7.49365 23.6931L7.50699 17.1198L13.4003 20.9598C14.8403 21.9064 17.2137 21.9064 18.6537 20.9598L24.507 17.1198Z" fill="#B8B6BD"/>
<path d="M26.64 8.61345L18.6534 3.37345C17.2134 2.42679 14.84 2.42679 13.4 3.37345L5.37336 8.61345C2.80003 10.2801 2.80003 14.0535 5.37336 15.7335L7.50669 17.1201L13.4 20.9601C14.84 21.9068 17.2134 21.9068 18.6534 20.9601L24.5067 17.1201L26.3334 15.9201V20.0001C26.3334 20.5468 26.7867 21.0001 27.3334 21.0001C27.88 21.0001 28.3334 20.5468 28.3334 20.0001V13.4401C28.8667 11.7201 28.32 9.72012 26.64 8.61345Z" fill="#B8B6BD"/>
</svg>
